<svg xmlns="http://www.w3.org/2000/svg">
  <defs>
    <symbol id="settings" fill="currentColor" viewBox="0 0 351 348"><path stroke="currentColor" d="M87.75 46.2c9.31 0 18.237 3.245 24.819 9.021S122.85 68.831 122.85 77s-3.698 16.003-10.281 21.779c-6.582 5.776-15.51 9.021-24.819 9.021-9.31 0-18.237-3.245-24.82-9.021C56.349 93.003 52.65 85.169 52.65 77s3.698-16.003 10.28-21.779c6.583-5.776 15.51-9.021 24.82-9.021zM263.25 0c23.273 0 45.592 8.112 62.049 22.553C341.755 36.993 351 56.578 351 77s-9.245 40.007-25.701 54.447S286.523 154 263.25 154H87.75c-23.273 0-45.592-8.112-62.049-22.553C9.245 117.007 0 97.422 0 77s9.245-40.007 25.701-54.447S64.477 0 87.75 0zM87.75 30.8c-13.964 0-27.355 4.867-37.23 13.532C40.648 52.996 35.1 64.747 35.1 77s5.547 24.004 15.42 32.668c9.875 8.665 23.266 13.532 37.23 13.532h175.5c13.964 0 27.355-4.867 37.229-13.532S315.9 89.253 315.9 77s-5.547-24.004-15.421-32.668C290.605 35.667 277.214 30.8 263.25 30.8zM263.25 194H87.75c-23.273 0-45.592 8.112-62.049 22.553C9.245 230.993 0 250.578 0 271s9.245 40.007 25.701 54.447S64.477 348 87.75 348h175.5c23.273 0 45.592-8.112 62.049-22.553C341.755 311.007 351 291.422 351 271s-9.245-40.007-25.701-54.447S286.523 194 263.25 194zm0 123.2c-13.964 0-27.355-4.867-37.229-13.532S210.6 283.253 210.6 271s5.547-24.004 15.421-32.668c9.874-8.665 23.265-13.532 37.229-13.532s27.355 4.867 37.229 13.532S315.9 258.747 315.9 271s-5.547 24.004-15.421 32.668c-9.874 8.665-23.265 13.532-37.229 13.532z"/></symbol>
    <symbol id="wifi" viewBox="0 0 469.333 469.333"><path fill="currentColor" d="m170.667 336.6 64 64 64-64c-35.307-35.307-92.694-35.307-128 0m-85.334-85.333L128 293.933c58.88-58.88 154.453-58.88 213.333 0L384 251.267c-82.453-82.454-216.213-82.454-298.667 0"/><path fill="currentColor" d="M0 165.933 42.667 208.6c106.027-106.027 277.973-106.027 384 0l42.667-42.667C339.733 36.333 129.6 36.333 0 165.933"/></symbol>
    <symbol id="appstore" viewBox="0 0.032 512 511.936"><g fill="#fff"><path d="m253.792 117.649 10.367-17.918c6.399-11.199 20.669-14.974 31.868-8.575s14.974 20.669 8.575 31.868L204.71 295.931h72.247c23.421 0 36.539 27.517 26.365 46.586H91.509c-12.926 0-23.293-10.367-23.293-23.293s10.367-23.293 23.293-23.293h59.385l76.023-131.76-23.741-41.211c-6.399-11.199-2.624-25.341 8.575-31.868 11.199-6.399 25.341-2.624 31.868 8.575zm-89.844 248.865-22.397 38.843c-6.399 11.199-20.669 14.974-31.868 8.575s-14.974-20.669-8.575-31.868l16.638-28.796c18.813-5.823 34.107-1.344 46.202 13.246"/><path d="M356.819 296.059h60.6c12.926 0 23.293 10.367 23.293 23.293s-10.367 23.293-23.293 23.293h-33.66l22.717 39.419c6.399 11.199 2.624 25.341-8.575 31.868-11.199 6.399-25.341 2.624-31.868-8.575-38.267-66.36-67-116.017-86.069-149.101-19.518-33.66-5.567-67.448 8.191-78.902 15.295 26.237 38.14 65.848 68.664 118.705"/></g></symbol>
    <symbol id="wally" viewBox="0 0 64 64"><rect width="58" height="39" x="3" y="12.5" fill="#27363a" rx="4" data-original="#27363a"/><circle cx="32" cy="32" r="12" fill="#faca30" data-original="#faca30"/><rect width="5" height="5" x="7" y="16" fill="#faca30" rx="1" data-original="#faca30"/><path d="M17 26H8.41L3 20.59v2.82l4.29 4.3A1 1 0 0 0 8 28h9a1 1 0 0 0 0-2m0 10H8a1 1 0 0 0-.71.29L3 40.59v2.82L8.41 38H17a1 1 0 0 0 0-2m-1-5H3v2h13a1 1 0 0 0 0-2m45-10.41L55.59 26H47a1 1 0 0 0 0 2h9a1 1 0 0 0 .71-.29l4.29-4.3zm0 20-4.29-4.3A1 1 0 0 0 56 36h-9a1 1 0 0 0 0 2h8.59L61 43.41zM61 31h-9a1 1 0 0 0 0 2h9z" data-original="#b58401" fill="#b58401"/><path fill="#27363a" d="M26 37a1 1 0 0 0 0 2h3v1a1 1 0 0 0 2 0v-1h2v1a1 1 0 0 0 2 0v-1a4 4 0 0 0 2.62-7A4 4 0 0 0 35 25v-1a1 1 0 0 0-2 0v1h-2v-1a1 1 0 0 0-2 0v1h-3a1 1 0 0 0 0 2h1v10zm3-10h6a2 2 0 0 1 0 4h-6zm0 6h6a2 2 0 0 1 0 4h-6z" data-original="#27363a"/><circle cx="48" cy="32" r="1" fill="#b58401" data-original="#b58401"/></symbol>
    <symbol id="crack" viewBox="0 0 512 512"><path fill="currentColor" d="M357.036 271.577c13.065-21.225 21.567-45.349 24.088-68.722l96.582 90.381-51.504 40.022a89 89 0 0 0-3.543-.889l2.254-22.054c.332-3.252.111-6.52-.655-9.698-4.595-19.06-25.931-29.04-44.104-29.04zm84.557 80.995c-37.443-21.618-85.322-8.789-106.94 28.654s-8.789 85.322 28.654 106.94 85.322 8.789 106.94-28.654 8.789-85.322-28.654-106.94m-45.143 109.85c-9.327-2.663-16.036-11.275-16.036-21.199V411.09a1.88 1.88 0 0 1 1.86-1.86h40.352c1.011 0 1.86.849 1.86 1.86v30.133c0 9.933-6.72 18.539-16.036 21.199v-37.968a6 6 0 1 0-12 0zm-11.641-79.806-4.712-8.161a5.974 5.974 0 0 1 10.359-5.953l4.77 8.261a26.1 26.1 0 0 1 14.447 0l4.77-8.261a5.974 5.974 0 0 1 10.359 5.953l-4.712 8.161c4.455 4.079 7.487 9.64 8.31 15.878 4.833 2.227 8.085 7.093 8.085 12.596v2.854l5.118-6.642a5.982 5.982 0 0 1 9.469 7.313l-6.768 8.783c-2.188 3.08-4.56 2.722-7.818 2.722v13.958c3.259 0 5.63-.358 7.818 2.722l6.768 8.783a5.983 5.983 0 0 1-9.469 7.313l-5.254-6.818h-1.648c-8.011 23.65-38.261 31.22-56.296 13.186a34.2 34.2 0 0 1-8.21-13.186h-1.648l-5.254 6.818a5.982 5.982 0 0 1-9.469-7.313l7.06-9.162a5.97 5.97 0 0 1 4.734-2.326v-.018h2.792v-13.958h-2.792v-.018a5.97 5.97 0 0 1-4.734-2.326l-7.06-9.162a5.983 5.983 0 0 1 9.469-7.313l5.118 6.641c0-4.918.078-8.659 4.067-12.648a13.9 13.9 0 0 1 4.019-2.803c.822-6.232 3.856-11.804 8.31-15.878zm31.012 14.614H389.08c4.46-12.585 22.281-12.585 26.741 0M117.238 498.667c-12.289 0-22.343-10.054-22.343-22.342v-22.343h223.8c7.289 18.216 20.516 34.187 38.808 44.685zM410.79 330.479l2.186-21.385c1.43-13.99-14.77-25.517-32.822-25.517H128.999c-18.051 0-34.252 11.528-32.822 25.517l13.584 132.888h205.077c-5.398-21.864-2.7-45.758 9.424-66.756 18.163-31.458 52.527-47.85 86.529-44.747zm-166.548 78.745a6 6 0 1 1-12 0v-6.062h-9.984a6 6 0 0 1-6-6v-55.967a6 6 0 0 1 6-6h9.984v-6.86a6 6 0 1 1 12 0v6.86h11.149v-6.86a6 6 0 1 1 12 0v6.86h5.511c17.548 0 26.704 21.303 14.254 33.984 12.449 12.677 3.296 33.984-14.254 33.984h-5.511v6.062a6 6 0 1 1-12 0v-6.062h-11.149zm-15.984-46.046v-15.983h44.645c2.192 0 4.189.901 5.64 2.352 5.092 5.092 1.341 13.632-5.64 13.632zm44.645 12c2.191 0 4.188.901 5.639 2.352 5.092 5.092 1.341 13.632-5.639 13.632h-44.645v-15.984zm74.675-111.028c11.058-18.216 18.548-38.798 21.231-59.193H140.344c2.683 20.395 10.173 40.977 21.231 59.193h45.043c21.768 0 40.387-9.305 47.959-22.466 7.572 13.161 26.191 22.466 47.959 22.466zm-26.645-50.61c2.336 2.607 3.685 2.607 3.685 8.972S312.74 239.6 299.856 239.6s-22.16-5.983-24.328-13.893l45.405-12.166zm-132.712 0 45.405 12.166c-2.168 7.91-11.444 13.893-24.328 13.893s-24.762-10.723-24.762-17.088 1.349-6.364 3.685-8.972zm183.158-92.862h-233.63L88.366 176.44c-6.023 6.8 7.434 16.518 16.518 16.518H404.27c9.084 0 22.542-9.721 16.518-16.518zM233.983 271.577c7.548-2.629 14.657-6.429 20.594-11.504 5.937 5.075 13.046 8.876 20.594 11.504zm20.581-226.876-48.998-28.289a22.636 22.636 0 0 0-32.585 11.598l-30.669 80.668h224.504l-30.67-80.668a22.635 22.635 0 0 0-32.584-11.598zM152.118 271.577h-23.119c-18.174 0-39.51 9.98-44.104 29.04a28.8 28.8 0 0 0-.655 9.698l2.659 26.01-55.451-43.089 96.582-90.381c2.521 23.373 11.023 47.497 24.088 68.722m-63.587 80.722 6.363 62.252H31.251l57.281-62.252z"/></symbol>
    <symbol id="notes" viewBox="0 0 512 512"><path fill="url(#notegradient)" d="M436 0h-30c-8.401 0-15 6.599-15 15 0 8.399-6.599 15-15 15s-15-6.601-15-15c0-8.401-6.599-15-15-15h-60c-8.401 0-15 6.599-15 15 0 8.399-6.599 15-15 15s-15-6.601-15-15c0-8.401-6.599-15-15-15h-60c-8.401 0-15 6.599-15 15 0 8.399-6.599 15-15 15s-15-6.601-15-15c0-8.401-6.599-15-15-15H76C51.098 0 31 20.1 31 45v422c0 24.898 20.098 45 45 45h300l105-105V45c0-24.9-20.098-45-45-45"/><path fill="#fff" d="M406 407c-16.501 0-30 13.5-30 30v75c3.9 0 7.8-1.5 10.499-4.501l90-90C479.499 414.8 481 410.9 481 407zM136 241h240c8.291 0 15-6.709 15-15s-6.709-15-15-15H136c-8.291 0-15 6.709-15 15s6.709 15 15 15m0-60h240c8.291 0 15-6.709 15-15s-6.709-15-15-15H136c-8.291 0-15 6.709-15 15s6.709 15 15 15m0 120h240c8.291 0 15-6.709 15-15s-6.709-15-15-15H136c-8.291 0-15 6.709-15 15s6.709 15 15 15m120 30H136c-8.291 0-15 6.709-15 15s6.709 15 15 15h120c8.291 0 15-6.709 15-15s-6.709-15-15-15"/></symbol>
    <symbol id="drone" viewBox="0 0 504.147 504.147"><path d="M277.984 226.868h-51.846c-1.804 4.017-4.356 8.586-7.373 13.044a5.47 5.47 0 0 0-.614 4.876 5.46 5.46 0 0 0 3.552 3.387c9.295 2.812 19.787 4.293 30.358 4.293 10.563 0 21.063-1.481 30.358-4.293a5.46 5.46 0 0 0 3.553-3.387 5.5 5.5 0 0 0-.614-4.876c-3.018-4.458-5.57-9.027-7.374-13.044" fill="#0092ff"/><ellipse cx="252.062" cy="147.658" rx="100.061" ry="41.889" fill="#093568"/><path d="M352.122 147.658c0 23.142-44.804 41.889-100.061 41.889S152 170.792 152 147.658" fill="#041d35"/><path d="M215.725 138.206c0 15.368-12.438 27.829-27.829 27.829-15.344 0-125.605-12.461-125.605-27.829 0-15.352 110.261-27.813 125.605-27.813 15.392-.001 27.829 12.46 27.829 27.813" fill="#093568"/><path d="M187.896 110.392c15.392 0 27.829 12.461 27.829 27.813" fill="#074584"/><path d="M215.725 138.206c0 15.368 17.904 48.065 2.536 48.065s-155.978-32.69-155.978-48.065" fill="#041d35"/><path d="M90.01 144.751c0 8.862-7.176 16.03-16.022 16.03-8.862 0-15.998-7.168-15.998-16.03v-14.336c0-8.846 7.136-16.014 15.998-16.014 8.846 0 16.022 7.168 16.022 16.014z" fill="#041d35"/><path d="M90.01 128.95c0 8.846-7.176 16.014-16.022 16.014-8.862 0-15.998-7.168-15.998-16.014v-14.336c0-8.846 7.136-16.03 15.998-16.03 8.846 0 16.022 7.184 16.022 16.03z" fill="#093568"/><path d="M58.478 114.606c1.694 7.018 7.971 12.233 15.51 12.233s13.808-5.215 15.518-12.233c-1.709-7.003-7.979-12.233-15.518-12.233-7.538 0-13.816 5.239-15.51 12.233" fill="#041d35"/><ellipse cx="73.98" cy="101.854" rx="73.98" ry="11.705" fill="#00b1ff"/><ellipse cx="73.988" cy="101.854" rx="41.102" ry="11.705" fill="#0092ff"/><path d="M147.495 101.854a2.036 2.036 0 0 1-2.056 2.048H2.521a2.037 2.037 0 0 1-2.04-2.048c0-1.142.914-2.064 2.04-2.064H145.44c1.142 0 2.055.929 2.055 2.064" fill="#00cfff"/><path d="M90.277 87.644c0 4.695 6.294 8.523 1.56 8.523H56.123c-4.71 0 1.575-3.828 1.575-8.523a8.54 8.54 0 0 1 8.539-8.554h15.486a8.546 8.546 0 0 1 8.554 8.554" fill="#041d35"/><path d="M288.398 138.206c0 15.368 12.438 27.829 27.821 27.829 15.352 0 125.613-12.461 125.613-27.829 0-15.352-110.261-27.813-125.613-27.813-15.384-.001-27.821 12.46-27.821 27.813" fill="#093568"/><path d="M316.227 110.392c-15.384 0-27.821 12.461-27.821 27.813" fill="#074584"/><path d="M288.398 138.206c0 15.368-17.904 48.065-2.536 48.065s155.979-32.689 155.979-48.065" fill="#041d35"/><path d="M414.113 144.751c0 8.862 7.176 16.03 16.022 16.03 8.854 0 16.006-7.168 16.006-16.03v-14.336c0-8.846-7.152-16.014-16.006-16.014-8.846 0-16.022 7.168-16.022 16.014z" fill="#041d35"/><path d="M414.113 128.95c0 8.846 7.176 16.014 16.022 16.014 8.854 0 16.006-7.168 16.006-16.014v-14.336c0-8.846-7.152-16.03-16.006-16.03-8.846 0-16.022 7.184-16.022 16.03z" fill="#093568"/><path d="M445.645 114.606c-1.694 7.018-7.979 12.233-15.51 12.233-7.538 0-13.816-5.215-15.525-12.233 1.709-7.003 7.987-12.233 15.525-12.233 7.53.008 13.816 5.239 15.51 12.233" fill="#041d35"/><ellipse cx="430.159" cy="101.854" rx="73.988" ry="11.705" fill="#00b1ff"/><ellipse cx="430.159" cy="101.854" rx="41.102" ry="11.705" fill="#0092ff"/><path d="M356.628 101.854c0 1.142.906 2.048 2.056 2.048h142.919c1.126 0 2.04-.906 2.04-2.048a2.05 2.05 0 0 0-2.04-2.064H358.684a2.06 2.06 0 0 0-2.056 2.064" fill="#00cfff"/><path d="M413.846 87.644c0 4.695-6.294 8.523-1.56 8.523H448c4.71 0-1.575-3.828-1.575-8.523a8.54 8.54 0 0 0-8.539-8.554H422.4a8.55 8.55 0 0 0-8.554 8.554" fill="#041d35"/><path d="M299.402 151.714h-15.265a7.91 7.91 0 0 0-6.018 2.796c-2.135 2.521-11.902 6.262-26.065 6.262-14.171 0-23.914-3.742-26.049-6.262a7.9 7.9 0 0 0-6.026-2.796h-15.258a7.87 7.87 0 0 0-7.877 7.877v16.14a7.96 7.96 0 0 0 2.135 5.404c3.009 3.182 7.176 4.506 11.201 5.782 7.704 2.434 8.539 3.434 8.539 6.294 0 6.412-6.081 19.952-14.816 32.91a7.89 7.89 0 0 0 4.262 11.942c13.438 4.064 28.617 6.215 43.89 6.215s30.46-2.15 43.898-6.215a7.89 7.89 0 0 0 5.136-4.892 7.94 7.94 0 0 0-.882-7.05c-8.72-12.958-14.809-26.49-14.809-32.91 0-2.859.835-3.86 8.523-6.294 4.033-1.276 8.2-2.599 11.209-5.782a7.92 7.92 0 0 0 2.135-5.404v-16.14c.014-4.348-3.515-7.877-7.863-7.877" fill="#081e34"/><path d="M268.138 119.38a1.48 1.48 0 0 1-1.481 1.481h-29.2a1.48 1.48 0 0 1-1.481-1.481 1.48 1.48 0 0 1 1.481-1.481h29.2c.82 0 1.481.661 1.481 1.481m0 8.861a1.48 1.48 0 0 1-1.481 1.481h-29.2a1.48 1.48 0 0 1-1.481-1.481 1.48 1.48 0 0 1 1.481-1.481h29.2c.82 0 1.481.662 1.481 1.481m0 8.862a1.48 1.48 0 0 1-1.481 1.481h-29.2a1.48 1.48 0 0 1-1.481-1.481 1.48 1.48 0 0 1 1.481-1.481h29.2c.82 0 1.481.662 1.481 1.481" fill="#0092ff"/><path d="M86.158 339.437c4.687-4.695 12.312-4.695 17.014 0 82.085 82.109 215.67 82.109 297.779 0 4.695-4.695 12.304-4.695 16.998 0 4.71 4.71 4.71 12.32 0 17.014-91.475 91.475-240.325 91.475-331.792 0-4.694-4.686-4.694-12.303.001-17.014" fill="#8df4ff"/><path d="M130.812 299.359c3.434-3.434 9.019-3.434 12.446 0 59.983 59.983 157.617 59.983 217.6 0 3.434-3.434 9.003-3.434 12.43 0s3.434 9.003 0 12.43c-66.844 66.844-175.616 66.859-242.467 0-3.428-3.426-3.435-8.995-.009-12.43" fill="#39e3ff"/><path d="M169.819 264.378a5.94 5.94 0 0 1 8.428 0c40.692 40.692 106.921 40.692 147.614-.016a5.96 5.96 0 0 1 8.436.016 5.95 5.95 0 0 1 0 8.428c-45.347 45.34-119.131 45.355-164.486 0-2.324-2.339-2.324-6.104.008-8.428" fill="#00cfff"/></symbol>
    <symbol id="miner" viewBox="0 0 64 64"><path fill="#343434" d="M11 26H7a2 2 0 0 0-2 2v8a2 2 0 0 0 2 2h4m0 11h47a2 2 0 0 0 2-2V17a2 2 0 0 0-2-2H19.363c-.24 0-.478.043-.703.127L11 18"/><g fill="#4d4d4d"><path d="M4 13a1 1 0 0 1 0-2h5a3 3 0 0 1 3 3v40a1 1 0 0 1-2 0V14a1 1 0 0 0-1-1z"/><path d="M7 23a1 1 0 0 1 0-2h4a1 1 0 0 1 0 2zm0 20a1 1 0 0 1 0-2h4a1 1 0 0 1 0 2z"/></g><path fill="#ffb900" d="M21 49v3a2 2 0 0 0 2 2h24a2 2 0 0 0 2-2v-3"/><path d="M24 49h2v5h-2zm4 0h2v5h-2zm4 0h2v5h-2zm4 0h2v5h-2zm4 0h2v5h-2zm4 0h2v5h-2z" fill="#f7931a"/><path fill="#4d4d4d" d="M22.5 24.5c4.139 0 7.5 3.361 7.5 7.5s-3.361 7.5-7.5 7.5S15 36.139 15 32s3.361-7.5 7.5-7.5"/><path fill="#343434" d="M22.5 29a3.001 3.001 0 0 1 0 6 3.001 3.001 0 0 1 0-6m0 2a1.001 1.001 0 0 0 0 2 1 1 0 0 0 0-2"/><path fill="#f7931a" d="M45 21c6.071 0 11 4.929 11 11s-4.929 11-11 11-11-4.929-11-11 4.929-11 11-11"/><path fill="#fefffe" d="M44 28v4a1 1 0 0 1-2 0v-4.246A1.754 1.754 0 0 1 43.754 26h1.984c.865 0 1.695.344 2.307.955.611.612.955 1.442.955 2.307v.476c0 .865-.344 1.695-.955 2.307a3.27 3.27 0 0 1-2.307.955 1.001 1.001 0 0 1 0-2c.335 0 .656-.133.893-.369.236-.237.369-.558.369-.893v-.476c0-.335-.133-.656-.369-.893a1.27 1.27 0 0 0-.893-.369z"/><path fill="#fefffe" d="M43 31h3.738A3.26 3.26 0 0 1 50 34.262v.476c0 .865-.344 1.695-.955 2.307a3.27 3.27 0 0 1-2.307.955h-2.984A1.754 1.754 0 0 1 42 36.246V32c0-.551.448-1 1-1m1 5h2.738c.335 0 .656-.133.893-.369.236-.237.369-.558.369-.893v-.476c0-.335-.133-.656-.369-.893a1.27 1.27 0 0 0-.893-.369H44z"/><path fill="#fff" d="M44 25a1 1 0 0 1 2 0v2a1 1 0 0 1-2 0z"/><path fill="#fefffe" d="M44 38a1 1 0 0 1 2 0v1a1 1 0 0 1-2 0z"/><g fill="#343434"><path d="M21.907 29.059c.563-1.362.448-2.723-.287-4.084a1 1 0 0 1-.118-.409 7.5 7.5 0 0 1 2.157.023c.715 1.592.817 3.183.273 4.775a8 8 0 0 1-.481 1.105c-.184.346-.542.54-.908.532L22.524 31a1 1 0 0 1-.84-1.467q.125-.237.223-.474"/><path d="M24.75 30.016c1.461-.192 2.582-.973 3.394-2.29a1 1 0 0 1 .294-.306 7.5 7.5 0 0 1 1.06 1.878c-1.021 1.415-2.349 2.299-3.999 2.624a7.4 7.4 0 0 1-1.266.136h-.006a1 1 0 0 1-.842-.523l-.006-.011a1 1 0 0 1 .85-1.465q.267-.009.521-.043"/><path d="M25.344 32.958c.897 1.168 2.133 1.749 3.68 1.792q.224.009.413.103a7.5 7.5 0 0 1-1.101 1.856c-1.735-.177-3.163-.885-4.269-2.151a7.6 7.6 0 0 1-.717-.969 1.002 1.002 0 0 1 .877-1.531h.006a1 1 0 0 1 .812.469q.142.227.299.431"/><path d="M23.093 34.941c-.563 1.362-.448 2.723.287 4.084a1 1 0 0 1 .118.409 7.5 7.5 0 0 1-2.157-.023c-.715-1.592-.817-3.183-.273-4.775q.189-.553.481-1.105c.184-.346.542-.54.908-.532l.019.001a1 1 0 0 1 .84 1.467 6 6 0 0 0-.223.474"/><path d="M15.502 34.702c1.021-1.415 2.349-2.299 3.999-2.624a7.4 7.4 0 0 1 1.266-.135h.006a1 1 0 0 1 .842.522l.006.011a1 1 0 0 1-.85 1.465q-.267.009-.521.043c-1.461.192-2.582.973-3.394 2.29a1 1 0 0 1-.294.306 7.5 7.5 0 0 1-1.06-1.878"/><path d="M19.656 31.042c-.897-1.168-2.133-1.749-3.68-1.792a1 1 0 0 1-.413-.103 7.5 7.5 0 0 1 1.101-1.856c1.735.177 3.163.885 4.269 2.151q.385.44.717.969c.208.332.197.739.007 1.053l-.012.018a1 1 0 0 1-.872.461h-.006a1 1 0 0 1-.812-.47 6 6 0 0 0-.299-.431"/></g></symbol>
    <symbol id="salty" height="56" width="56" viewBox="-10 0 512 512"><path fill="#5c6699" d="M76 496c-8.291 0-15-6.709-15-15v-30c0-8.291 6.709-15 15-15s15 6.709 15 15v30c0 8.291-6.709 15-15 15"/><path fill="#404a80" d="M436 496c-8.291 0-15-6.709-15-15v-30c0-8.291 6.709-15 15-15s15 6.709 15 15v30c0 8.291-6.709 15-15 15"/><path fill="#5c6699" d="m92.201 306.903-90-210c-3.252-7.603.264-16.421 7.881-19.688 7.529-3.252 16.406.22 19.717 7.881l90 210c3.252 7.603-.264 16.421-7.881 19.688-7.451 3.218-16.37-.13-19.717-7.881"/><path fill="#404a80" d="M400.082 314.784c-7.617-3.267-11.133-12.085-7.881-19.688l90-210c3.311-7.661 12.129-11.162 19.717-7.881 7.617 3.267 11.133 12.085 7.881 19.688l-90 210c-3.348 7.753-12.268 11.098-19.717 7.881"/><path fill="#edf5ff" d="M467 466H45c-24.814 0-45-20.186-45-45v-90c0-24.814 20.186-45 45-45h422c24.814 0 45 20.186 45 45v90c0 24.814-20.186 45-45 45"/><path fill="#d5e8fe" d="M467 286H256v180h211c24.814 0 45-20.186 45-45v-90c0-24.814-20.186-45-45-45"/><path fill="#80bfff" d="M266.547 230.409C264.906 228.769 261.332 226 256 226s-8.906 2.769-10.547 4.409c-5.859 5.859-15.352 5.859-21.211 0s-5.859-15.352 0-21.211C229.164 204.262 239.857 196 256 196s26.836 8.262 31.758 13.198c5.859 5.859 5.859 15.352 0 21.211s-15.352 5.86-21.211 0M393.9 103.188C357.045 66.303 308.061 46 256 46s-101.045 20.303-137.9 57.188c-5.859 5.859-15.352 5.859-21.211 0s-5.859-15.352 0-21.211C139.428 39.438 195.912 16 256 16s116.572 23.438 159.111 65.977c5.859 5.859 5.859 15.352 0 21.211s-15.351 5.859-21.211 0"/><path fill="#80bfff" d="M351.449 145.595C325.932 120.063 292.035 106 256 106s-69.932 14.063-95.449 39.595c-5.859 5.859-15.352 5.859-21.211 0s-5.859-15.352 0-21.211C170.512 93.183 211.967 76 256 76s85.488 17.183 116.66 48.384c5.859 5.859 5.859 15.352 0 21.211s-15.351 5.859-21.211 0"/><path fill="#80bfff" d="M308.998 188.002c-28.359-28.389-77.637-28.389-105.996 0-5.859 5.859-15.352 5.859-21.211 0-5.859-5.845-5.859-15.352 0-21.211 39.668-39.697 108.75-39.697 148.418 0 5.859 5.859 5.859 15.366 0 21.211-5.859 5.859-15.351 5.859-21.211 0"/><path fill="#69f" d="M316 406c-8.291 0-15-6.709-15-15v-30c0-8.291 6.709-15 15-15s15 6.709 15 15v30c0 8.291-6.709 15-15 15m60 0c-8.291 0-15-6.709-15-15v-30c0-8.291 6.709-15 15-15s15 6.709 15 15v30c0 8.291-6.709 15-15 15m60 0c-8.291 0-15-6.709-15-15v-30c0-8.291 6.709-15 15-15s15 6.709 15 15v30c0 8.291-6.709 15-15 15M266.547 230.409c5.859 5.859 15.351 5.86 21.211 0 5.859-5.859 5.859-15.352 0-21.211C282.836 204.262 272.143 196 256 196v30c5.332 0 8.906 2.769 10.547 4.409m42.451-42.407c5.859 5.859 15.351 5.86 21.211 0 5.859-5.845 5.859-15.352 0-21.211-19.835-19.849-47.021-29.773-74.209-29.773v29.692c19.409 0 38.818 7.098 52.998 21.292m42.451-42.407c5.859 5.859 15.351 5.86 21.211 0 5.859-5.859 5.859-15.352 0-21.211C341.488 93.183 300.033 76 256 76v30c36.035 0 69.932 14.063 95.449 39.595m42.451-42.407c5.859 5.859 15.351 5.86 21.211 0 5.859-5.859 5.859-15.352 0-21.211C372.572 39.438 316.088 16 256 16v30c52.061 0 101.045 20.303 137.9 57.188"/></symbol>
    <symbol id="minerext" viewBox="0 0 496 496"><path d="M448 152.8c0 9.6-4.8 15.2-14.4 15.2H62.4c-9.6 0-14.4-5.6-14.4-15.2V136c0-9.6 4.8-16 14.4-16h371.2c9.6 0 14.4 6.4 14.4 16z" fill="#112827"/><path d="M488 131.2c0 9.6-12 20.8-20.8 20.8H28.8C20 152 8 140.8 8 131.2V18.4C8 8.8 20 0 28.8 0h438.4C476 0 488 8.8 488 18.4z" fill="#5c605f"/><path d="M8 18.4C8 8.8 20 0 28.8 0h438.4C476 0 488 8.8 488 18.4v112.8c0 9.6-12 20.8-20.8 20.8" fill="#4b4f4e"/><path d="M56 99.2c0 1.6-2.4 3.2-4 3.2s-4-1.6-4-3.2V49.6c0-1.6 2.4-3.2 4-3.2s4 1.6 4 3.2zm24 0c0 1.6-2.4 3.2-4 3.2s-4-1.6-4-3.2V49.6c0-1.6 2.4-3.2 4-3.2s4 1.6 4 3.2zm24 0c0 1.6-2.4 3.2-4 3.2s-4-1.6-4-3.2V49.6c0-1.6 2.4-3.2 4-3.2s4 1.6 4 3.2z" fill="#112827"/><path d="M376 76c0 2.4-1.6 4-4 4H132c-2.4 0-4-1.6-4-4s1.6-4 4-4h239.2c3.2 0 4.8 1.6 4.8 4" fill="#afbcb8"/><circle cx="374.4" cy="74.4" r="24.8" fill="#afbcb8"/><circle cx="374.4" cy="74.4" r="12" fill="#1bcc73"/><path d="M382.4 83.2c-4.8 4.8-12 4.8-16.8 0s-4.8-12 0-16.8" fill="#36e88f"/><path d="M447.2 74.4c0 6.4-5.6 12-12 12s-12-5.6-12-12 5.6-12 12-12 12 5.6 12 12" fill="#4affa8"/><path d="M443.2 83.2c-4.8 4.8-12 4.8-16.8 0s-4.8-12 0-16.8" fill="#36e88f"/><path d="M448 315.2c0 9.6-4.8 20.8-14.4 20.8H62.4c-9.6 0-14.4-11.2-14.4-20.8v-16.8c0-9.6 4.8-18.4 14.4-18.4h371.2c9.6 0 14.4 8.8 14.4 18.4z" fill="#112827"/><path d="M488 293.6c0 9.6-12 18.4-20.8 18.4H28.8C20 312 8 303.2 8 293.6V180.8c0-9.6 12-20.8 20.8-20.8h438.4c9.6 0 20.8 11.2 20.8 20.8z" fill="#5c605f"/><path d="M8 180.8c0-9.6 12-20.8 20.8-20.8h438.4c9.6 0 20.8 11.2 20.8 20.8v112.8c0 9.6-12 18.4-20.8 18.4" fill="#4b4f4e"/><path d="M56 261.6c0 1.6-2.4 3.2-4 3.2-1.6.8-4-.8-4-3.2V212c0-1.6 2.4-3.2 4-3.2s4 1.6 4 3.2zm24-.8c0 1.6-1.6 3.2-3.2 3.2H76c-1.6 0-3.2-1.6-3.2-3.2V212c0-1.6 1.6-3.2 3.2-3.2h.8c1.6 0 3.2 1.6 3.2 3.2zm24 0c0 1.6-1.6 3.2-3.2 3.2h-.8c-1.6 0-3.2-1.6-3.2-3.2V212c0-1.6 1.6-3.2 3.2-3.2h.8c1.6 0 3.2 1.6 3.2 3.2z" fill="#112827"/><path d="M373.6 236c0 2.4-1.6 4-4 4H132c-2.4 0-4-1.6-4-4s1.6-4 4-4h237.6c2.4 0 4 1.6 4 4" fill="#afbcb8"/><circle cx="374.4" cy="236.8" r="24.8" fill="#afbcb8"/><circle cx="374.4" cy="236.8" r="12" fill="#1bcc73"/><path d="M382.4 245.6c-4.8 4.8-12 4.8-16.8 0s-4.8-12 0-16.8" fill="#36e88f"/><path d="M447.2 236.8c0 6.4-5.6 12-12 12s-12-5.6-12-12 5.6-12 12-12 12 5.6 12 12" fill="#4affa8"/><path d="M443.2 245.6c-4.8 4.8-12 4.8-16.8 0s-4.8-12 0-16.8" fill="#36e88f"/><path d="M448 477.6c0 9.6-4.8 18.4-14.4 18.4H62.4c-9.6 0-14.4-8.8-14.4-18.4v-16.8c0-8.8 4.8-12.8 14.4-12.8h371.2c9.6 0 14.4 4 14.4 12.8z" fill="#112827"/><path d="M488 456c0 9.6-12 16-20.8 16H28.8C20 472 8 465.6 8 456V343.2c0-9.6 12-15.2 20.8-15.2h438.4c9.6 0 20.8 5.6 20.8 15.2z" fill="#5c605f"/><path d="M8 343.2c0-9.6 12-15.2 20.8-15.2h438.4c9.6 0 20.8 5.6 20.8 15.2V456c0 9.6-12 16-20.8 16" fill="#4b4f4e"/><path d="M56 424c0 1.6-2.4 3.2-4 3.2-1.6.8-4-.8-4-3.2v-49.6c0-1.6 2.4-3.2 4-3.2s4 1.6 4 3.2zm24 0c0 1.6-2.4 3.2-4 3.2s-4-1.6-4-3.2v-49.6c0-1.6 2.4-3.2 4-3.2s4 1.6 4 3.2zm24 0c0 1.6-2.4 3.2-4 3.2s-4-1.6-4-3.2v-49.6c0-1.6 2.4-3.2 4-3.2s4 1.6 4 3.2z" fill="#112827"/><path d="M376 396c0 2.4-1.6 4-4 4H132c-2.4 0-4-1.6-4-4s1.6-4 4-4h239.2c3.2 0 4.8 1.6 4.8 4" fill="#afbcb8"/><circle cx="374.4" cy="399.2" r="24.8" fill="#afbcb8"/><circle cx="374.4" cy="399.2" r="12" fill="#1bcc73"/><path d="M382.4 408c-4.8 4.8-12 4.8-16.8 0s-4.8-12 0-16.8" fill="#36e88f"/><path d="M447.2 399.2c0 6.4-5.6 12-12 12s-12-5.6-12-12 5.6-12 12-12 12 5.6 12 12" fill="#4affa8"/><path d="M443.2 408c-4.8 4.8-12 4.8-16.8 0s-4.8-12 0-16.8" fill="#36e88f"/></symbol>
    <symbol id="binunce" viewBox="0 0 371 363"><path fill="currentColor" fill-rule="evenodd" d="M3.557 230.195c6.198 31.873 21.249 58.434 41.612 78.798v-27.446c-17.707-15.052-31.873-31.874-41.612-51.352m181.5-200.093c85.88 0 155.824 57.549 155.824 128.378s-69.944 127.493-155.824 127.493S30.118 229.31 30.118 158.48 99.177 30.102 185.057 30.102m30.103 192.125h41.612c6.198 0 8.854 0 10.624-1.771 1.771-.885 3.541-2.656 3.541-5.312 0-1.771-1.771-4.427-4.427-9.739l-20.363-35.415-.885-.885c-2.656-4.427-4.427-7.083-6.198-7.968s-4.427-.885-6.198 0-3.541 3.541-7.083 8.854l-20.363 35.415c-2.656 5.312-4.427 7.968-4.427 9.739 0 2.656 1.771 4.427 3.541 5.312 1.772 1.77 4.428 1.77 10.626 1.77m-72.6 0h-28.332c-6.198 0-9.739 0-11.51-1.771q-2.656-1.328-2.656-5.312c0-1.771.885-4.427 4.427-9.739l70.829-125.722c2.656-5.312 4.427-7.968 6.198-8.854 2.656-.885 4.427-.885 7.083 0 1.771.885 3.541 3.541 6.198 8.854l14.166 25.676h.885c2.656 6.198 4.427 8.854 5.312 11.51a21.6 21.6 0 0 1 0 10.624c-.885 2.656-2.656 6.198-5.312 11.51l-38.071 66.402c-2.656 5.312-4.427 8.854-7.083 10.624-2.656 2.656-5.312 4.427-8.854 5.312-2.656.886-6.197.886-13.28.886M185.057 0C287.76 0 370.984 70.829 370.984 158.48c0 86.766-83.224 157.595-185.927 157.595C83.24 316.076.016 245.246.016 158.48.016 70.829 83.24 0 185.057 0m0 15.051c94.734 0 170.876 63.746 170.876 143.429 0 78.798-76.141 142.544-170.876 142.544-93.849 0-169.99-63.746-169.99-142.544 0-79.682 76.142-143.429 169.99-143.429M60.221 322.273c4.427 3.541 9.739 7.083 15.051 10.624v-30.102c-5.312-3.541-10.624-6.198-15.051-9.739zm30.102 18.593c22.134 11.51 46.924 18.593 72.6 21.249v-31.873c-26.561-2.656-50.466-9.739-72.6-19.478zM177.974 363h15.051v-31.873h-15.051zm30.103-.885c25.676-2.656 50.466-9.739 72.6-21.249v-30.102c-22.134 9.739-46.924 16.822-72.6 19.478zm87.651-29.217c5.312-3.541 9.739-7.083 15.051-10.624v-29.217c-5.312 3.541-9.739 6.198-15.051 9.739zm30.102-23.905c20.363-20.363 35.415-46.924 41.612-78.798-10.624 19.478-24.79 36.3-41.612 51.351z"/></symbol>
    <symbol id="hq" viewBox="0 0 60 60"><path d="M37.13 21.26c-1.8-.49-4.4-.77-7.13-.77-4.97 0-8 .85-8.76 1.39.16 4.22 3.85 8.82 8.76 8.82s8.59-4.59 8.76-8.8c-.23-.15-.71-.39-1.63-.64" fill="#currentColor"/><path d="m45.37 49.1.39-.21a8.02 8.02 0 0 0 3.95-8.97l-1.81-7.34a7.44 7.44 0 0 0-4.4-5.08l-2.24-.9c.53-.9 1.05-2.22 1.57-3.96.88-2.99-1.43-7.93-4.1-11.51C37.35 9.29 33.74 5 30 5s-7.35 4.29-8.73 6.13c-2.67 3.58-4.98 8.52-4.1 11.51.52 1.74 1.04 3.06 1.57 3.96l-2.24.9a7.44 7.44 0 0 0-4.4 5.08l-1.81 7.34c-.88 3.54.75 7.23 3.95 8.97l.39.21v2.98c0 .32.07.63.16.92h-1.26c-.56 0-1 .44-1 1 0 .55.44 1 1 1h32.94c.56 0 1-.45 1-1 0-.56-.44-1-1-1h-1.26c.09-.29.16-.6.16-.92zM17.55 32.29c-1.61 0-2.92 1.31-2.92 2.92v11.56a5.98 5.98 0 0 1-2.4-6.37l1.82-7.34a5.37 5.37 0 0 1 3.2-3.7l3.54-1.43c.42-.17.67-.6.62-1.05a.99.99 0 0 0-.59-.79c-.14-.14-.79-.89-1.67-3.84.15-2.11 4.86-3.76 10.85-3.76 2.95 0 5.8.42 7.82 1.16 1.11.4 2.94 1.28 3.03 2.61-.89 2.94-1.53 3.69-1.67 3.83-.32.14-.55.44-.59.79-.05.45.2.88.62 1.05l3.54 1.43c1.59.64 2.79 2.02 3.2 3.7l1.82 7.34c.61 2.44-.37 4.96-2.4 6.37V35.21c0-1.61-1.31-2.92-2.92-2.92z" fill="#currentColor"/></symbol>
    <symbol id="search" viewBox="0 0 512 512"><path d="M416 208c0 45.9-14.9 88.3-40 122.7l126.6 126.7c12.5 12.5 12.5 32.8 0 45.3s-32.8 12.5-45.3 0L330.7 376c-34.4 25.2-76.8 40-122.7 40C93.1 416 0 322.9 0 208S93.1 0 208 0s208 93.1 208 208M208 352a144 144 0 1 0 0-288 144 144 0 1 0 0 288"/></symbol>
    <symbol id="note" viewBox="0 0 384 512"><path d="M64 0C28.7 0 0 28.7 0 64v384c0 35.3 28.7 64 64 64h256c35.3 0 64-28.7 64-64V160H256c-17.7 0-32-14.3-32-32V0zm192 0v128h128zM112 256h160c8.8 0 16 7.2 16 16s-7.2 16-16 16H112c-8.8 0-16-7.2-16-16s7.2-16 16-16m0 64h160c8.8 0 16 7.2 16 16s-7.2 16-16 16H112c-8.8 0-16-7.2-16-16s7.2-16 16-16m0 64h160c8.8 0 16 7.2 16 16s-7.2 16-16 16H112c-8.8 0-16-7.2-16-16s7.2-16 16-16"/></symbol>
    <symbol id="info" viewBox="0 0 192 512"><path d="M48 80a48 48 0 1 1 96 0 48 48 0 1 1-96 0M0 224c0-17.7 14.3-32 32-32h64c17.7 0 32 14.3 32 32v224h32c17.7 0 32 14.3 32 32s-14.3 32-32 32H32c-17.7 0-32-14.3-32-32s14.3-32 32-32h32V256H32c-17.7 0-32-14.3-32-32"/></symbol>
    <symbol id="cart" viewBox="0 0 24 24"><path fill="currentColor" d="M1 1a1 1 0 1 0 0 2h1.78a.69.69 35.784 0 1 .657.474l3.297 9.893c.147.44.165.912.053 1.362l-.271 1.087C6.117 17.41 7.358 19 9 19h12a1 1 0 1 0 0-2H9c-.39 0-.64-.32-.545-.697l.205-.818A.64.64 142.028 0 1 9.28 15H20a1 1 0 0 0 .95-.684l2.665-8A1 1 0 0 0 22.666 5H6.555a.69.69 35.783 0 1-.658-.474l-.948-2.842A1 1 0 0 0 4 1zm7 19a2 2 0 1 0 0 4 2 2 0 0 0 0-4m12 0a2 2 0 1 0 0 4 2 2 0 0 0 0-4"/></symbol>
    <symbol id="login" viewBox="0 0 128 128"><path fill="currentColor" d="M64 0C28.711 0 0 28.711 0 64s28.711 64 64 64 64-28.711 64-64S99.289 0 64 0m0 120C33.121 120 8 94.879 8 64S33.121 8 64 8s56 25.121 56 56-25.121 56-56 56m26.828-58.828a3.997 3.997 0 0 1 0 5.656l-20 20C70.047 87.609 69.023 88 68 88s-2.047-.391-2.828-1.172a3.997 3.997 0 0 1 0-5.656L78.344 68H40c-2.209 0-4-1.789-4-4s1.791-4 4-4h38.344L65.172 46.828c-1.563-1.563-1.563-4.094 0-5.656s4.094-1.563 5.656 0z"/></symbol>
    <symbol id="send" viewBox="0 0 24 24"><path fill="currentColor" d="M8.75 17.612v4.638a.751.751 0 0 0 1.354.444l2.713-3.692zM23.685.139a.75.75 0 0 0-.782-.054l-22.5 11.75a.752.752 0 0 0 .104 1.375l6.255 2.138 13.321-11.39L9.775 16.377l10.483 3.583a.753.753 0 0 0 .984-.599l2.75-18.5a.75.75 0 0 0-.307-.722"/></symbol>
    <symbol id="receive" viewBox="0 0 475.078 475.077"><path fill="currentColor" d="M467.083 318.627c-5.324-5.328-11.8-7.994-19.41-7.994H315.195l-38.828 38.827q-16.56 15.987-38.828 15.988c-14.843 0-27.789-5.324-38.828-15.988l-38.543-38.827H27.408c-7.612 0-14.083 2.669-19.414 7.994Q0 326.619 0 338.044v91.358q0 11.42 7.994 19.414 7.995 7.991 19.414 7.99h420.266c7.61 0 14.086-2.662 19.41-7.99q7.996-7.993 7.994-19.414v-91.358c0-7.617-2.662-14.089-7.995-19.417m-107.058 96.214q-5.431 5.425-12.854 5.424c-7.423-.001-9.227-1.807-12.847-5.424q-5.421-5.425-5.421-12.844c0-4.948 1.807-9.236 5.421-12.847 3.62-3.62 7.898-5.431 12.847-5.431s9.232 1.811 12.854 5.431c3.613 3.61 5.421 7.898 5.421 12.847q0 7.418-5.421 12.844m73.084 0q-5.422 5.425-12.848 5.424-7.421 0-12.847-5.424-5.42-5.425-5.42-12.844c0-4.948 1.807-9.236 5.42-12.847q5.425-5.43 12.847-5.431c7.422-.001 9.233 1.811 12.848 5.431 3.617 3.61 5.427 7.898 5.427 12.847q.001 7.418-5.427 12.844"/><path fill="currentColor" d="M224.692 323.479q5.142 5.42 12.847 5.421c5.141 0 9.418-1.808 12.847-5.421l127.907-127.908q8.85-8.28 3.997-19.986-4.847-11.13-16.844-11.136h-73.091V36.543c0-4.948-1.811-9.231-5.421-12.847q-5.429-5.426-12.847-5.426h-73.096q-7.42 0-12.847 5.426-5.423 5.424-5.424 12.847V164.45h-73.089c-7.998 0-13.61 3.715-16.846 11.136-3.234 7.801-1.903 14.467 3.999 19.986z"/></symbol>
    <symbol id="copy" viewBox="0 0 48 48"><path fill="currentColor" d="M33.46 28.672V7.735c0-2.481-2.019-4.5-4.5-4.5H8.023a4.505 4.505 0 0 0-4.5 4.5v20.937c0 2.481 2.019 4.5 4.5 4.5H28.96c2.481 0 4.5-2.019 4.5-4.5m-26.937 0V7.735c0-.827.673-1.5 1.5-1.5H28.96c.827 0 1.5.673 1.5 1.5v20.937c0 .827-.673 1.5-1.5 1.5H8.023c-.827 0-1.5-.673-1.5-1.5m33.454-13.844h-3.646a1.5 1.5 0 1 0 0 3h3.646c.827 0 1.5.673 1.5 1.5v20.937c0 .827-.673 1.5-1.5 1.5H19.041c-.827 0-1.5-.673-1.5-1.5v-4.147a1.5 1.5 0 1 0-3 0v4.147c0 2.481 2.019 4.5 4.5 4.5h20.936c2.481 0 4.5-2.019 4.5-4.5V19.328c0-2.481-2.019-4.5-4.5-4.5"/></symbol>
    <symbol id="kick" viewBox="0 0 68 68"><path fill="currentColor" d="m43.797.166 23 10A2 2 0 0 1 68 12v44a2 2 0 0 1-1.203 1.834l-23 10A2 2 0 0 1 41 66V2A2 2 0 0 1 43.797.166M49 37a3 3 0 1 0 0-6 3 3 0 0 0 0 6m-27.437 6.392L32 53.828l-6.879 6.88a3 3 0 0 1-4.242 0l-3.586-3.587a3 3 0 0 1-.435-3.692l-3.14-.45a2 2 0 0 1-1.132-.565l-7.293-7.293a3 3 0 0 1 0-4.242l.419-.42a4 4 0 0 1 4.093-.965l11.482 3.827q.137.046.276.07zM37 29.172v19.656L34.828 51 25 41.172zm-23.015-3.42a2 2 0 0 1-3.97.496l-1-8a2 2 0 0 1 3.97-.496zm-6.57 2.834a2 2 0 0 1-2.83 2.828l-4-4a2 2 0 0 1 2.83-2.828zm13.442-.843a2 2 0 1 1-3.714-1.486l2-5a2 2 0 1 1 3.714 1.486z"/></symbol>
    <symbol id="members" viewBox="0 0 511.999 511.999"><path fill="currentColor" d="M438.09 273.32h-39.596c4.036 11.05 6.241 22.975 6.241 35.404v149.65c0 5.182-.902 10.156-2.543 14.782h65.461c24.453 0 44.346-19.894 44.346-44.346v-81.581c.001-40.753-33.155-73.909-73.909-73.909m-330.825 35.405c0-12.43 2.205-24.354 6.241-35.404H73.91c-40.754 0-73.91 33.156-73.91 73.91v81.581c0 24.452 19.893 44.346 44.346 44.346h65.462a44.1 44.1 0 0 1-2.543-14.783zm193.996-73.91h-90.522c-40.754 0-73.91 33.156-73.91 73.91v149.65c0 8.163 6.618 14.782 14.782 14.782h208.778c8.164 0 14.782-6.618 14.782-14.782v-149.65c0-40.754-33.156-73.91-73.91-73.91M256 38.84c-49.012 0-88.886 39.874-88.886 88.887 0 33.245 18.349 62.28 45.447 77.524 12.853 7.23 27.671 11.362 43.439 11.362s30.586-4.132 43.439-11.362c27.099-15.244 45.447-44.28 45.447-77.524 0-49.012-39.874-88.887-88.886-88.887M99.918 121.689c-36.655 0-66.475 29.82-66.475 66.475s29.82 66.475 66.475 66.475a66.1 66.1 0 0 0 26.195-5.388c13.906-5.987 25.372-16.585 32.467-29.86a66.05 66.05 0 0 0 7.813-31.227c0-36.654-29.82-66.475-66.475-66.475m312.164 0c-36.655 0-66.475 29.82-66.475 66.475a66.05 66.05 0 0 0 7.813 31.227c7.095 13.276 18.561 23.874 32.467 29.86a66.1 66.1 0 0 0 26.195 5.388c36.655 0 66.475-29.82 66.475-66.475s-29.82-66.475-66.475-66.475"/></symbol>
    <symbol id="selection" viewBox="0 0 477.867 477.867"><path fill="currentColor" d="M238.933 0C106.974 0 0 106.974 0 238.933s106.974 238.933 238.933 238.933 238.933-106.974 238.933-238.933C477.726 107.033 370.834.141 238.933 0m0 443.733c-113.108 0-204.8-91.692-204.8-204.8s91.692-204.8 204.8-204.8 204.8 91.692 204.8 204.8c-.122 113.058-91.742 204.678-204.8 204.8"/><path fill="currentColor" d="M238.933 85.333c-84.831 0-153.6 68.769-153.6 153.6s68.769 153.6 153.6 153.6 153.6-68.769 153.6-153.6c-.103-84.788-68.812-153.496-153.6-153.6m0 273.067c-65.98 0-119.467-53.487-119.467-119.467s53.487-119.467 119.467-119.467S358.4 172.954 358.4 238.933c-.075 65.949-53.518 119.392-119.467 119.467"/></symbol>
    <symbol id="announcement" viewBox="0 0 66 66"><path fill="currentColor" d="M21.37 44.22 12.6 29.03l-6.73 3.88C1.68 35.34.24 40.7 2.67 44.9c2.42 4.19 7.78 5.63 11.98 3.21zm29.42-26.64c.19.32.52.5.87.5.17 0 .34-.04.5-.13l8.08-4.67c.48-.28.64-.89.37-1.37a1.01 1.01 0 0 0-1.37-.37l-8.08 4.67c-.48.28-.65.89-.37 1.37m12.68 6.77-9.32.41c-.55.02-.98.49-.96 1.04.02.54.47.96 1 .96h.04l9.32-.41c.55-.02.98-.49.96-1.04-.02-.56-.48-.97-1.04-.96m-18.6-12.96c.17.11.35.16.54.16.33 0 .65-.16.84-.46l5.02-7.87a1 1 0 0 0-.3-1.38.994.994 0 0 0-1.38.31l-5.02 7.87a.99.99 0 0 0 .3 1.37M21.02 46.73l-5.38 3.11c-.72.41-1.48.72-2.26.96.96 4.78 3.41 9.14 7 12.44a4.15 4.15 0 0 0 4.89.52c.04-.02.07-.04.11-.06 2.29-1.32 2.81-4.42 1.04-6.38a23.2 23.2 0 0 1-5.4-10.59M34.4 26.57c-3.26-5.65-5.9-11.23-7.43-15.72-.87-2.57-1.34-4.61-1.4-6.19-2.05 2.7-3.1 7.14-4.5 10.96-1.65 5.17-3.92 9.27-6.91 12.1l9.13 15.82c3.95-1.18 8.64-1.09 13.94.06 4.03.69 8.44 2.02 11.81 1.57-5.87-3.63-13.64-16.88-14.64-18.6"/><path fill="currentColor" d="M28.25 2.46c-1.85 1.07.18 8.19 4.6 17.02 3.19-1.5 7.05-.34 8.84 2.77 1.8 3.11.87 7.04-2.03 9.05 5.48 8.33 10.69 13.73 12.55 12.65 2.26-1.31-1.26-11.66-7.88-23.12S30.52 1.15 28.25 2.46"/></symbol>
    <symbol id="cowboy" viewBox="0 0 511.976 511"><path fill="currentColor" d="m390.066 347.953-40 40c-29.867 12-62.136 18.137-94.402 17.867-57.332 0-96.531-18.664-97.066-19.199-10.668-5.332-23.465-1.066-28.532 9.602-4.535 9.066-2.136 20 5.864 26.132l106.668 85.332c7.734 6.133 18.933 6.133 26.668 0L361 434.356l29.066 29.067 30.133-30.133-27.469-27.469 27.47-27.465Zm0 0"/><path fill="currentColor" d="M255.93 384.488c73.867 0 136.535-53.867 147.734-126.933-37.867 12-86.133 20.265-147.734 20.265-61.598 0-109.864-8.265-147.73-20.265 11.198 73.066 73.866 126.933 147.73 126.933m252.8-245.867c-4-6.398-10.664-10.133-18.132-10.133H425c1.332 35.465-26.402 65.067-61.602 66.399H150.863c-35.465 0-64-28.797-64-64v-2.399H21.266c-15.47.266-25.868 16.801-19.2 30.934 2.133 4 50.934 97.066 253.864 97.066 202.933 0 251.734-93.066 253.867-97.066 3.203-6.668 2.933-14.399-1.067-20.8Zm0 0"/><path fill="currentColor" d="M150.863 173.555h210.403c23.734 0 42.664-19.2 42.664-42.934 0-1.066 0-2.398-.266-3.465-4-49.867-16-86.668-35.734-106.668-12.797-12.8-29.864-20-48-20-29.067 0-50.399 14.399-64 28.535C242.332 14.887 221 .488 191.93.488c-18.133 0-35.2 7.2-48 20-20 20-31.73 56.801-35.73 106.668-1.868 23.465 15.464 44.266 38.933 46.133 1.332.266 2.398.266 3.73.266m0 0"/></symbol>
    <symbol id="leader" viewBox="0 0 32 32"><path d="M2.837 20.977 1.012 9.115c-.135-.876.863-1.474 1.572-.942l5.686 4.264a1.36 1.36 0 0 0 1.945-.333l4.734-7.1c.5-.75 1.602-.75 2.102 0l4.734 7.1a1.36 1.36 0 0 0 1.945.333l5.686-4.264c.71-.532 1.707.066 1.572.942l-1.825 11.862zm24.953 6.582H4.21a1.373 1.373 0 0 1-1.373-1.373v-3.015h26.326v3.015c0 .758-.615 1.373-1.373 1.373" data-original="#ffb743" fill="#ffb743"/></symbol>
    <symbol id="locked" viewBox="0 0 512.001 512.001"><path d="M399.36 231.111v-80.142c0-79.179-64.187-143.366-143.356-143.366-79.179 0-143.366 64.187-143.366 143.366v80.142m51.698 0v-80.142c0-50.553 41.125-91.668 91.668-91.668s91.658 41.115 91.658 91.668v80.142" fill="#d3dae0" data-original="#d3dae0"/><path d="M264.366 7.852a146 146 0 0 0-8.362-.249c-79.179 0-143.366 64.187-143.366 143.366v80.142h16.725v-80.142c0-76.371 59.717-138.786 135.003-143.117m8.363 51.448c-2.819 0-5.608.135-8.363.385 46.637 4.238 83.295 43.549 83.295 91.283v80.142h16.725v-80.142c0-50.552-41.115-91.668-91.657-91.668" fill="#899ea8" data-original="#899ea8"/><path d="M65.181 231.111h381.634v273.291H65.181z" fill="#f79f00" data-original="#f79f00"/><path d="M65.181 231.111h33.45v273.291h-33.45z" fill="#e48900" data-original="#e48900"/><path d="M297.053 342.103c0-22.673-18.38-41.052-41.052-41.052s-41.052 18.379-41.052 41.052c0 15.616 8.721 29.194 21.556 36.134l-6.606 50.531h52.205l-6.606-50.531c12.834-6.939 21.555-20.518 21.555-36.134" fill="#3e3d4c" data-original="#3e3d4c"/><path d="M446.818 223.507h-39.855v-28.888a7.603 7.603 0 0 0-15.206 0v28.888h-36.493v-71.283c0-54.65-43.64-99.994-98.287-100.521-55.182-.531-100.244 44.203-100.244 99.265v72.539H120.24v-71.043c0-74.914 60.052-136.822 134.965-137.255 75.22-.435 136.552 60.635 136.552 135.76v8.17a7.603 7.603 0 0 0 15.206 0v-6.719c0-83.446-67.09-152.189-150.536-152.419-83.438-.229-151.391 67.583-151.391 150.968v72.539H65.183a7.603 7.603 0 0 0-7.603 7.603v198.684a7.603 7.603 0 0 0 15.206 0V238.712h366.429v258.083H72.786v-31.522a7.603 7.603 0 0 0-15.206 0v39.124A7.603 7.603 0 0 0 65.183 512h381.635a7.603 7.603 0 0 0 7.603-7.603V231.109a7.603 7.603 0 0 0-7.603-7.602m-274.879-72.538c0-46.354 37.711-84.065 84.065-84.065 46.348 0 84.055 37.711 84.055 84.065v72.539h-168.12z" data-original="#000000"/><path d="M304.656 342.102c0-26.828-21.827-48.655-48.655-48.655s-48.655 21.827-48.655 48.655a48.62 48.62 0 0 0 20.983 40.024l-5.969 45.656a7.602 7.602 0 0 0 7.539 8.589h52.205a7.602 7.602 0 0 0 7.539-8.589l-5.969-45.656a48.62 48.62 0 0 0 20.982-40.024m-32.776 29.447a7.605 7.605 0 0 0-3.922 7.674l5.483 41.943h-34.882l5.483-41.943a7.6 7.6 0 0 0-3.922-7.674 33.45 33.45 0 0 1-17.57-29.447c0-18.444 15.006-33.45 33.45-33.45s33.45 15.006 33.45 33.45a33.45 33.45 0 0 1-17.57 29.447" data-original="#000000"/></symbol>
    <symbol id="sademoji" viewBox="0 0 512 512"><circle cx="256" cy="256" r="256" fill="#ffd93b" data-original="#ffd93b"/><path d="M512 256c0 141.44-114.64 256-256 256-80.48 0-152.32-37.12-199.28-95.28 43.92 35.52 99.84 56.72 160.72 56.72 141.36 0 256-114.56 256-256 0-60.88-21.2-116.8-56.72-160.72C474.8 103.68 512 175.52 512 256" fill="#f4c534" data-original="#f4c534"/><path d="M332.432 384.8c0 7.472-5.968 13.328-13.328 13.328H192.912c-7.36 0-13.328-5.872-13.328-13.328 0-7.36 5.968-13.328 13.328-13.328h126.192c7.344 0 13.328 5.968 13.328 13.328M111.808 261.68c6.256-3.68 24.768 16.16 53.84 17.248 30.096 1.12 47.584-20.928 53.84-17.248 7.792 2.672-2.832 53.552-53.84 53.744-50.992-.192-61.632-51.072-53.84-53.744" fill="#3e4347" data-original="#3e4347"/><path d="M99.808 239.312c-5.808-.928-9.776-6.4-8.832-12.224.944-5.808 6.32-9.792 12.224-8.832 59.968 9.632 78.192-33.2 78.368-33.632 2.208-5.456 8.416-8.08 13.904-5.856 5.456 2.224 8.08 8.448 5.856 13.904-12.032 29.472-49.824 54.944-101.52 46.64" fill="#e9b02c" data-original="#e9b02c"/><path d="M400.192 261.68c-6.256-3.68-24.768 16.16-53.84 17.248-30.096 1.12-47.584-20.928-53.84-17.248-7.792 2.672 2.832 53.552 53.84 53.744 50.992-.192 61.632-51.072 53.84-53.744" fill="#3e4347" data-original="#3e4347"/><path d="M310.672 192.656c-2.224-5.456.4-11.68 5.856-13.904 5.44-2.224 11.648.384 13.888 5.808.8 1.92 19.12 43.216 78.384 33.696 5.872-.96 11.296 3.024 12.224 8.832.928 5.824-3.024 11.296-8.832 12.224-51.328 8.256-89.392-16.912-101.52-46.656" fill="#e9b02c" data-original="#e9b02c"/></symbol>
    <symbol id="padlock" viewBox="0 0 490 490"><path fill="currentColor" d="M95.6 490h298.7c21.4 0 38.8-17.4 38.8-38.8V237.1c0-21.4-17.4-38.8-38.8-38.8h-1v-51.2C393.3 66 327.3 0 246.2 0S99.1 66 99.1 147.1v51.2h-3.4c-21.4 0-38.8 17.4-38.8 38.8v214.1c-.1 21.4 17.3 38.8 38.7 38.8m67.8-342.9c0-45.6 37.1-82.8 82.8-82.8 45.6 0 82.8 37.1 82.8 82.8v51.2H163.4z"/></symbol>
    <symbol id="market" viewBox="0 0 452.923 452"><path d="M202.996 11.695a30.12 30.12 0 0 1 46.926 0c-.39-.027-.793-.015-1.188-.039-7.152-.46-14.472-.781-22.148-.785-.121 0-.242.004-.367.004-7.602.008-14.856.32-21.942.777-.425.028-.859.016-1.28.043zm-10.098 20.793a308 308 0 0 1 69.95.258c100.488 11.57 139.265 69.606 151.672 95.715H38.582c12.832-26.223 52.86-85.059 154.316-95.973m130.133 194.434c-7.039-12.61-23.648-50.281 8.137-78.77h47.879c-18.055 26.653-13.281 57.391-4.043 78.77zm-83.55 0c-7.036-12.61-23.649-50.281 8.14-78.77h57.438c-18.059 26.653-13.286 57.391-4.047 78.77zm-83.547 0c-7.036-12.61-23.649-50.281 8.136-78.77h57.438c-18.055 26.653-13.281 57.391-4.043 78.77zm-83.836 0c-7.04-12.61-23.649-50.281 8.136-78.77h57.727c-18.055 26.653-13.285 57.391-4.043 78.77zM0 197.382v-19.69c.02-16.31 13.23-29.52 29.54-29.54h24.585c-18.055 26.653-13.285 57.391-4.043 78.77H29.539C13.23 226.902.02 213.688 0 197.382m452.922 0c-.016 16.305-13.23 29.52-29.54 29.54H397.02c-7.036-12.61-23.649-50.281 8.14-78.77h18.223c16.308.02 29.523 13.23 29.539 29.54zm-54.113 99.622a222 222 0 0 0-123.563 23.371 107.48 107.48 0 0 1-97.523 0 220.76 220.76 0 0 0-123.57-23.371c-25.426 2.598-44.876 23.695-44.274 48.027 1 40.188 19.144 88.184 99.918 88.653 37.555.277 66.558-5.715 82.25-16.707 32.14-22.54 36.648-22.543 68.867-.004 15.711 10.988 44.883 16.816 82.254 16.71 80.773-.468 98.918-48.464 99.918-88.652.602-24.332-18.844-45.43-44.277-48.027m-290.5 105.758c-34.817 0-59.079-22.98-59.079-43.606 0-16.043 8.543-35.164 49.23-35.164 34.849 0 68.923 29.797 68.923 52.043 0 18.461-29.672 26.727-59.074 26.727m236.308 0c-29.406 0-59.078-8.266-59.078-26.727 0-22.246 34.078-52.043 68.922-52.043 40.687 0 49.23 19.121 49.23 35.164 0 20.625-24.257 43.606-59.074 43.606m0 0" fill="#38a2e5" data-original="#000000"/></symbol>
    <symbol id="cart-remove" viewBox="0 0 24 24"><path d="M22.03 7.97c.29.29.29.77 0 1.06-.15.15-.34.22-.53.22s-.38-.07-.53-.22L19 7.06l-1.97 1.97c-.15.15-.34.22-.53.22s-.38-.07-.53-.22a.754.754 0 0 1 0-1.06L17.94 6l-1.97-1.97c-.29-.29-.29-.77 0-1.06s.77-.29 1.06 0L19 4.94l1.97-1.97c.29-.29.77-.29 1.06 0s.29.77 0 1.06L20.06 6zM22.75 20c0 1.52-1.23 2.75-2.75 2.75s-2.75-1.23-2.75-2.75c0-.45.12-.87.31-1.25h-7.12c.19.38.31.8.31 1.25 0 1.52-1.23 2.75-2.75 2.75a2.748 2.748 0 0 1-1.05-5.29l-1.53-13c-.06-.51-.44-.94-.94-1.07l-2.66-.66a.75.75 0 1 1 .36-1.46l2.66.67c1.1.27 1.93 1.22 2.07 2.34l.11.99s.08-.02.12-.02h6.42c-.03.25-.06.49-.06.75 0 3.03 2.47 5.5 5.5 5.5 1.25 0 2.4-.43 3.33-1.13l-.37 2.83c-.11.81-.78 1.45-1.6 1.51l-12.12.96.19 1.58H20c1.52 0 2.75 1.23 2.75 2.75m-13.5 0a1.25 1.25 0 1 0-2.5 0 1.25 1.25 0 0 0 2.5 0m12 0a1.25 1.25 0 1 0-2.5 0 1.25 1.25 0 0 0 2.5 0" fill="#38a2e5" data-original="#000000"/></symbol>
    <symbol id="plus" viewBox="0 0 512 512"><path d="M467 211H301V45c0-24.853-20.147-45-45-45s-45 20.147-45 45v166H45c-24.853 0-45 20.147-45 45s20.147 45 45 45h166v166c0 24.853 20.147 45 45 45s45-20.147 45-45V301h166c24.853 0 45-20.147 45-45s-20.147-45-45-45" fill="#38a2e5" data-original="#000000"/></symbol>
    <symbol id="minus" viewBox="0 0 300 300"><path d="M240.3 171.5H59.7c-11.9 0-21.5-9.6-21.5-21.5s9.6-21.5 21.5-21.5h180.6c11.9 0 21.5 9.6 21.5 21.5s-9.6 21.5-21.5 21.5" fill="#38a2e5" data-original="#000000"/></symbol>
    <symbol id="amount" viewBox="0 0 60 57"><g fill="#38a2e5"><path d="M57 24h-9.786A2.98 2.98 0 0 0 48 22V3a3 3 0 0 0-3-3H26c-.764 0-1.499.293-2.053.819l-9.212 6.47A3 3 0 0 0 13 10v14c-.764 0-1.499.293-2.053.819l-9.212 6.47A3 3 0 0 0 0 34v20a3 3 0 0 0 3 3h21a2.98 2.98 0 0 0 2-.78c.547.5 1.26.777 2 .78h21c.811 0 1.588-.331 2.15-.916l7.958-7.958A2.98 2.98 0 0 0 60 46V27a3.015 3.015 0 0 0-3-3m-6.666 7.327A3 3 0 0 0 49 31h-8.766l5-5h11.188zM24 31h-8a1 1 0 0 1-1-1V10a1 1 0 0 1 1-1h21a1 1 0 0 1 1 1v20a1 1 0 0 1-.285.7l-.02.02A1 1 0 0 1 37 31zM39.727 8.766 46 3.277V22a.98.98 0 0 1-.3.7L40 28.409V10a3 3 0 0 0-.273-1.234m-1.393-1.439A3 3 0 0 0 37 7h-7.085l6.428-5h8.079zM25.165 2.408a1 1 0 0 0 .141-.12A.97.97 0 0 1 26 2h7.085l-6.428 5h-8.03zm-13 24a1 1 0 0 0 .141-.12A.97.97 0 0 1 13 26v4c.003.341.066.68.184 1H5.627zM3 55a1 1 0 0 1-1-1V34a1 1 0 0 1 1-1h21a1 1 0 0 1 1 1v20a1 1 0 0 1-.286.7l-.018.017A1 1 0 0 1 24 55zm25 0a1 1 0 0 1-1-1V34a1 1 0 0 1 1-1h21a1 1 0 0 1 1 1v20a1 1 0 0 1-.278.685l-.022.015-.014.016A1 1 0 0 1 49 55zm29.7-8.3L52 52.4V34a3 3 0 0 0-.273-1.234L58 27.277V46a.98.98 0 0 1-.3.7" data-original="#000000"/><path d="M23 23h-4a2 2 0 0 0-2 2v2a2 2 0 0 0 2 2h4a2 2 0 0 0 2-2v-2a2 2 0 0 0-2-2m-4 4v-2h4v2zm16-4h-3a1 1 0 0 0 0 2h3a1 1 0 0 0 0-2m0 4h-3a1 1 0 0 0 0 2h3a1 1 0 0 0 0-2M10 47H6a2 2 0 0 0-2 2v2a2 2 0 0 0 2 2h4a2 2 0 0 0 2-2v-2a2 2 0 0 0-2-2m-4 4v-2h4v2zm16-4h-3a1 1 0 0 0 0 2h3a1 1 0 0 0 0-2m0 4h-3a1 1 0 0 0 0 2h3a1 1 0 0 0 0-2m13-4h-4a2 2 0 0 0-2 2v2a2 2 0 0 0 2 2h4a2 2 0 0 0 2-2v-2a2 2 0 0 0-2-2m-4 4v-2h4v2zm16-4h-3a1 1 0 0 0 0 2h3a1 1 0 0 0 0-2m0 4h-3a1 1 0 0 0 0 2h3a1 1 0 0 0 0-2" data-original="#000000"/></g></symbol>
    <symbol id="price" viewBox="0 0 511.997 511.997"><path d="m489.252 393.782-80.487-171.855a7.501 7.501 0 0 0-13.585 6.363l80.486 171.851c3.6 7.699.268 16.896-7.428 20.502l-154.316 72.268c-7.695 3.605-16.89.276-20.497-7.42l-28.851-61.621 75.093-181.18a30.5 30.5 0 0 0-.497-24.423l-41.075-88.727 53.243 16.844a15.43 15.43 0 0 1 9.309 8.162l19.722 42.094a7.5 7.5 0 0 0 9.974 3.61 7.5 7.5 0 0 0 3.609-9.975l-19.719-42.087a30.45 30.45 0 0 0-18.375-16.107l-64.21-20.314c13.238-19.338 27.183-45.197 31.981-56.774 12.582-30.356 2.427-47.238-11.271-52.916-13.699-5.676-32.818-.927-45.4 29.429-5.411 13.056-10.376 41.49-13.907 65.883a42.4 42.4 0 0 0-12.54 2.714l-97.147 37.118a30.55 30.55 0 0 0-17.243 16.767L22.216 404.693c-3.111 7.506-3.113 15.773-.005 23.28s8.952 13.354 16.457 16.464l30.39 12.595a7.5 7.5 0 1 0 5.744-13.858l-30.39-12.596c-3.803-1.576-6.766-4.539-8.341-8.344s-1.574-7.994.003-11.798l103.908-250.708a15.48 15.48 0 0 1 8.739-8.498l97.147-37.118a27.7 27.7 0 0 1 5.071-1.401 1335 1335 0 0 0-2.223 17.824 25.3 25.3 0 0 0-9.305 2.359c-6.13 2.87-10.775 7.956-13.079 14.32-2.305 6.365-1.993 13.245.877 19.375 4.303 9.19 13.453 14.592 22.988 14.592 3.593 0 7.243-.768 10.707-2.39 6.13-2.87 10.775-7.957 13.08-14.32 2.304-6.365 1.993-13.245-.877-19.375-2.138-4.564-5.506-8.302-9.714-10.867.558-4.776 1.409-11.819 2.489-20.018 6.492 2.53 12.042 7.461 15.162 14.202l44.512 96.153a15.45 15.45 0 0 1 .251 12.378L221.969 487.483a15.3 15.3 0 0 1-8.344 8.341 15.3 15.3 0 0 1-11.798-.002l-92.799-38.461a7.501 7.501 0 0 0-5.744 13.858l92.799 38.461a30.3 30.3 0 0 0 11.606 2.317c11.939 0 23.29-7.073 28.137-18.771l20.969-50.591 23.044 49.218c5.167 11.028 16.15 17.512 27.591 17.512 4.314 0 8.696-.922 12.854-2.871L474.6 434.227c15.183-7.114 21.756-25.255 14.652-40.445M259.879 159.363a10.27 10.27 0 0 1-5.337 5.843c-5.162 2.418-11.33.184-13.748-4.978a10.27 10.27 0 0 1-.358-7.905 10.27 10.27 0 0 1 5.336-5.843 10.3 10.3 0 0 1 4.378-.981c1.187 0 2.377.207 3.526.623a10.27 10.27 0 0 1 5.843 5.336 10.26 10.26 0 0 1 .36 7.905m18.899-55.347a43.3 43.3 0 0 0-10.811-4.921c3.382-23.407 8.021-50.186 12.853-61.847 3.403-8.213 12.73-26.727 25.797-21.314 13.066 5.416 6.561 25.102 3.156 33.314-4.612 11.128-18.211 36.276-30.995 54.768" fill="#38a2e5" data-original="#000000"/><path d="M154.412 252.893c16.25-8.649 34.896-10.454 52.504-5.077 29.226 8.922 48.843 35.426 48.815 65.952a7.5 7.5 0 0 0 7.494 7.508h.007a7.5 7.5 0 0 0 7.501-7.494c.016-17.613-5.713-35.192-16.131-49.5-10.777-14.799-25.752-25.455-43.307-30.815-44.259-13.51-91.256 11.504-104.765 55.761-6.545 21.44-4.349 44.144 6.184 63.932 10.532 19.788 28.138 34.29 49.577 40.835a84 84 0 0 0 24.516 3.66 83.8 83.8 0 0 0 34.269-7.324c18.317-8.206 33.092-22.676 41.604-40.745a7.5 7.5 0 0 0-3.588-9.982 7.5 7.5 0 0 0-9.982 3.588c-14.468 30.713-49.906 46.387-82.437 36.454-17.607-5.374-32.066-17.284-40.716-33.534s-10.453-34.897-5.077-52.504c5.372-17.606 17.283-32.066 33.532-40.715" fill="#38a2e5" data-original="#000000"/><path d="M215.643 293.316a14.2 14.2 0 0 0-8.454-6.963l-3.407-1.04 2.315-7.584a7.501 7.501 0 0 0-14.347-4.381l-2.367 7.756c-9.993-1.725-19.973 4.211-23.008 14.157a20.3 20.3 0 0 0 1.506 15.569 20.3 20.3 0 0 0 12.073 9.944l9.442 2.882a5.4 5.4 0 0 1 3.211 2.645 5.4 5.4 0 0 1 .4 4.141 5.4 5.4 0 0 1-2.645 3.21 5.4 5.4 0 0 1-4.14.4l-4.72-1.441-9.95-3.037a7.502 7.502 0 0 0-14.52-3.709c-2.303 7.546 1.961 15.559 9.508 17.864l3.408 1.04-2.315 7.584a7.501 7.501 0 0 0 14.347 4.38l2.365-7.748c1.16.202 2.326.315 3.49.315 3.303 0 6.578-.81 9.576-2.406a20.3 20.3 0 0 0 9.944-12.073c3.29-10.778-2.801-22.223-13.579-25.513l-9.442-2.882a5.4 5.4 0 0 1-3.21-2.645 5.4 5.4 0 0 1-.4-4.141 5.44 5.44 0 0 1 6.786-3.611l4.717 1.44.003.001h.002l9.947 3.037a7.501 7.501 0 0 0 14.52 3.708 14.22 14.22 0 0 0-1.056-10.899m223.934 100.072-48.004-102.009A7.501 7.501 0 0 0 378 297.766l48.004 102.009a7.5 7.5 0 0 0 6.792 4.309 7.5 7.5 0 0 0 6.781-10.696m-33.536 17.935-48.004-102.009a7.5 7.5 0 0 0-13.573 6.387l48.004 102.009a7.5 7.5 0 0 0 6.792 4.309 7.5 7.5 0 0 0 6.781-10.696" fill="#38a2e5" data-original="#000000"/></symbol>
    <symbol id="noid" viewBox="0 0 512 512"><g data-name="Social Icon"><rect width="512" height="512" fill="#38a2e5" rx="150" data-original="#1e88e5"/><path fill="#fff" d="M402.06 149.93h-33.35l10.17-53.46C381.89 80.65 369.76 66 353.66 66c-12.33 0-22.92 8.76-25.22 20.88l-11.99 63.05H235.9l10.17-53.46C249.08 80.65 236.95 66 220.85 66c-12.33 0-22.92 8.76-25.22 20.88l-11.99 63.05h-55.62c-11.14 0-21.06 7.07-24.7 17.6-5.87 16.97 6.74 34.67 24.7 34.67h45.68l-20.46 107.6h-43.29c-11.14 0-21.06 7.07-24.7 17.6-5.87 16.97 6.74 34.67 24.7 34.67h33.35l-10.17 53.46c-3.01 15.82 9.12 30.47 25.22 30.47 12.33 0 22.92-8.76 25.22-20.88l11.99-63.05h80.55l-10.17 53.46c-3.01 15.82 9.12 30.47 25.22 30.47 12.33 0 22.92-8.76 25.22-20.88l11.99-63.05h55.62c11.14 0 21.06-7.07 24.7-17.6 5.87-16.97-6.74-34.67-24.7-34.67h-45.68l20.46-107.6h43.29c11.14 0 21.06-7.07 24.7-17.6 5.87-16.97-6.74-34.67-24.7-34.67M286.05 309.8H205.5l20.46-107.6h80.55z" data-original="#ffffff"/></g></symbol>
    <symbol id="sniff" viewBox="0 0 512 512"><path fill="#5ecef4" d="M255.833 70 0 135v322c0 30.376 24.624 55 55 55h402c30.376 0 55-24.624 55-55V85c0-8.284-6.716-15-15-15z" data-original="#5ecef4"/><path fill="#4895ff" d="M497 70H256v442h201c30.376 0 55-24.624 55-55V85c0-8.284-6.716-15-15-15" data-original="#4895ff"/><path fill="#046eff" d="M512 55c0-30.376-24.624-55-55-55H291.25c-24.222 0-46.068 14.564-55.385 36.923L215.833 85H512z" data-original="#046eff"/><path fill="#696e73" d="M247.821 104.231 291.25 0H55C24.673 0 0 24.673 0 55v80h201.667a50 50 0 0 0 46.154-30.769" data-original="#696e73"/><circle cx="67.5" cy="67.5" r="15" fill="#ff80aa" data-original="#ff80aa"/><circle cx="127.5" cy="67.5" r="15" fill="#fff36c" data-original="#fff36c"/><circle cx="187.5" cy="67.5" r="15" fill="#a5e887" data-original="#a5e887"/><path fill="#4b5055" d="M256 0v84.6L291.25 0z" data-original="#4b5055"/><path fill="#fff5f5" d="M383.314 232.569C381.508 203.652 357.396 181 328.422 181h-25.851a55 55 0 0 0-38.893 16.109L256 204.787l-7.678-7.678A55 55 0 0 0 209.432 181h-25.854c-28.974 0-53.086 22.652-54.893 51.569L124.721 296c0 8.284 6.716 15 15 15h232.558c8.284 0 15-6.716 15-15z" data-original="#fff5f5"/><path fill="#e1ebf0" d="M372.279 311c8.284 0 15-6.716 15-15l-3.965-63.431C381.508 203.652 357.396 181 328.422 181h-25.851a55 55 0 0 0-38.893 16.109L256 204.787V311z" data-original="#e1ebf0"/><path fill="#e1ebf0" d="m124.721 296-3.75 60h270.058l-3.75-60z" data-original="#e1ebf0"/><path fill="#b3d8f4" d="M256 356h135.029l-3.75-60H256z" data-original="#b3d8f4"/><path fill="#696e73" d="M121 356v20c0 41.355 33.645 75 75 75 24.508 0 46.306-11.818 60-30.052C269.694 439.182 291.492 451 316 451c41.355 0 75-33.645 75-75v-20z" data-original="#696e73"/><path fill="#4b5055" d="M256 420.948C269.694 439.182 291.492 451 316 451c41.355 0 75-33.645 75-75v-20H256z" data-original="#4b5055"/><path fill="#fff5f5" d="M426 371H86c-8.284 0-15-6.716-15-15s6.716-15 15-15h340c8.284 0 15 6.716 15 15s-6.716 15-15 15" data-original="#fff5f5"/><path fill="#e1ebf0" d="M426 341H256v30h170c8.284 0 15-6.716 15-15s-6.716-15-15-15" data-original="#e1ebf0"/></symbol>
  </defs>
</svg>

